<svg xmlns="http://www.w3.org/2000/svg" viewBox="0 0 800 600">
  <defs>
    <linearGradient id="wall" x1="0" y1="0" x2="0" y2="1">
      <stop offset="0" stop-color="#151a1c"/>
      <stop offset="1" stop-color="#0d1113"/>
    </linearGradient>
    <radialGradient id="lamp" cx="0.5" cy="0.5" r="0.5">
      <stop offset="0" stop-color="#d9a441" stop-opacity="0.45"/>
      <stop offset="1" stop-color="#d9a441" stop-opacity="0"/>
    </radialGradient>
    <radialGradient id="vig" cx="0.5" cy="0.45" r="0.75">
      <stop offset="0.45" stop-color="#000" stop-opacity="0"/>
      <stop offset="1" stop-color="#000" stop-opacity="0.7"/>
    </radialGradient>
  </defs>
  <rect width="800" height="600" fill="url(#wall)"/>
  <rect x="0" y="420" width="800" height="180" fill="#0a0d0f"/>
  <circle cx="400" cy="180" r="100" fill="url(#lamp)"/>
  <g fill="none" stroke="#6b8c7a" stroke-width="4" opacity="0.8">
    <path d="M370 120 Q430 150 370 180 Q310 210 370 240"/>
    <path d="M430 120 Q370 150 430 180 Q490 210 430 240"/>
    <line x1="378" y1="135" x2="422" y2="135"/>
    <line x1="372" y1="160" x2="428" y2="160"/>
    <line x1="372" y1="200" x2="428" y2="200"/>
    <line x1="378" y1="225" x2="422" y2="225"/>
  </g>
  <rect x="240" y="340" width="320" height="80" fill="#171b23"/>
  <rect x="240" y="340" width="320" height="8" fill="#232936"/>
  <g>
    <rect x="270" y="300" width="14" height="40" rx="3" fill="#3a4353"/>
    <rect x="270" y="322" width="14" height="18" fill="#6b8c7a" opacity="0.7"/>
    <rect x="295" y="306" width="14" height="34" rx="3" fill="#3a4353"/>
    <rect x="295" y="324" width="14" height="16" fill="#6b8c7a" opacity="0.7"/>
    <rect x="320" y="298" width="14" height="42" rx="3" fill="#3a4353"/>
    <rect x="320" y="320" width="14" height="20" fill="#6b8c7a" opacity="0.7"/>
  </g>
  <g fill="#e8e2d2" opacity="0.85">
    <rect x="420" y="310" width="70" height="46" rx="3" transform="rotate(-4 455 333)"/>
    <rect x="500" y="330" width="60" height="40" rx="3" transform="rotate(3 530 350)"/>
  </g>
  <g stroke="#8a8578" stroke-width="2">
    <line x1="430" y1="322" x2="480" y2="318"/>
    <line x1="430" y1="332" x2="475" y2="328"/>
    <line x1="510" y1="342" x2="550" y2="339"/>
  </g>
  <rect x="180" y="120" width="60" height="120" fill="#1c212a"/>
  <rect x="190" y="135" width="40" height="60" fill="#0d1015"/>
  <rect width="800" height="600" fill="url(#vig)"/>
</svg>
