<svg xmlns="http://www.w3.org/2000/svg" viewBox="0 0 800 600">
  <defs>
    <linearGradient id="sky" x1="0" y1="0" x2="0" y2="1">
      <stop offset="0" stop-color="#1a1d23"/>
      <stop offset="1" stop-color="#31363e"/>
    </linearGradient>
    <radialGradient id="vig" cx="0.5" cy="0.45" r="0.75">
      <stop offset="0.5" stop-color="#000" stop-opacity="0"/>
      <stop offset="1" stop-color="#000" stop-opacity="0.7"/>
    </radialGradient>
  </defs>
  <rect width="800" height="600" fill="url(#sky)"/>
  <rect x="0" y="430" width="800" height="170" fill="#0b0d10"/>
  <g fill="#14171d">
    <rect x="180" y="180" width="440" height="260"/>
    <rect x="180" y="180" width="440" height="20" fill="#1c212a"/>
  </g>
  <rect x="260" y="260" width="280" height="180" fill="#05070a"/>
  <g stroke="#3a4353" stroke-width="3" opacity="0.7">
    <line x1="300" y1="260" x2="340" y2="440"/>
    <line x1="380" y1="260" x2="360" y2="440"/>
    <line x1="460" y1="260" x2="480" y2="440"/>
    <line x1="520" y1="260" x2="500" y2="440"/>
  </g>
  <g fill="#8a8f99" opacity="0.5">
    <circle cx="330" cy="330" r="10"/>
    <rect x="322" y="340" width="16" height="40" rx="6"/>
    <circle cx="420" cy="325" r="10"/>
    <rect x="412" y="335" width="16" height="42" rx="6"/>
  </g>
  <g fill="#1c212a">
    <rect x="200" y="220" width="60" height="40" rx="4"/>
    <rect x="540" y="220" width="60" height="40" rx="4"/>
  </g>
  <g fill="#0d1015">
    <rect x="120" y="420" width="80" height="14" rx="6"/>
    <rect x="600" y="425" width="90" height="14" rx="6"/>
  </g>
  <rect x="0" y="380" width="800" height="50" fill="#9aa4ad" opacity="0.05"/>
  <rect width="800" height="600" fill="url(#vig)"/>
</svg>
