<svg xmlns="http://www.w3.org/2000/svg" viewBox="0 0 800 600">
  <defs>
    <linearGradient id="wall" x1="0" y1="0" x2="0" y2="1">
      <stop offset="0" stop-color="#241f1a"/>
      <stop offset="1" stop-color="#161310"/>
    </linearGradient>
    <radialGradient id="fire" cx="0.5" cy="0.5" r="0.5">
      <stop offset="0" stop-color="#e8c56a" stop-opacity="0.8"/>
      <stop offset="1" stop-color="#e8c56a" stop-opacity="0"/>
    </radialGradient>
    <radialGradient id="vig" cx="0.5" cy="0.45" r="0.75">
      <stop offset="0.5" stop-color="#000" stop-opacity="0"/>
      <stop offset="1" stop-color="#000" stop-opacity="0.6"/>
    </radialGradient>
  </defs>
  <rect width="800" height="600" fill="url(#wall)"/>
  <rect x="0" y="440" width="800" height="160" fill="#0d0b09"/>
  <circle cx="400" cy="420" r="120" fill="url(#fire)"/>
  <g>
    <polygon points="385,420 400,360 415,420" fill="#e8c56a"/>
    <polygon points="391,420 400,375 409,420" fill="#d97b3a"/>
    <rect x="372" y="418" width="56" height="10" rx="5" fill="#2a2118"/>
  </g>
  <g fill="#0d1015">
    <circle cx="280" cy="330" r="12"/>
    <rect x="270" y="340" width="20" height="46" rx="7"/>
    <circle cx="330" cy="320" r="12"/>
    <rect x="320" y="330" width="20" height="50" rx="7"/>
    <circle cx="470" cy="325" r="12"/>
    <rect x="460" y="335" width="20" height="48" rx="7"/>
    <circle cx="520" cy="335" r="12"/>
    <rect x="510" y="345" width="20" height="42" rx="7"/>
  </g>
  <g fill="#1c212a">
    <rect x="80" y="380" width="120" height="26" rx="8"/>
    <rect x="600" y="385" width="130" height="26" rx="8"/>
  </g>
  <rect width="800" height="600" fill="url(#vig)"/>
</svg>
