<svg xmlns="http://www.w3.org/2000/svg" viewBox="0 0 800 600">
  <defs>
    <linearGradient id="wall" x1="0" y1="0" x2="0" y2="1">
      <stop offset="0" stop-color="#1e2126"/>
      <stop offset="1" stop-color="#121419"/>
    </linearGradient>
    <radialGradient id="window" cx="0.5" cy="0.5" r="0.5">
      <stop offset="0" stop-color="#c8d2e0" stop-opacity="0.25"/>
      <stop offset="1" stop-color="#c8d2e0" stop-opacity="0"/>
    </radialGradient>
    <radialGradient id="vig" cx="0.5" cy="0.45" r="0.75">
      <stop offset="0.5" stop-color="#000" stop-opacity="0"/>
      <stop offset="1" stop-color="#000" stop-opacity="0.7"/>
    </radialGradient>
  </defs>
  <rect width="800" height="600" fill="url(#wall)"/>
  <rect x="0" y="440" width="800" height="160" fill="#0c0e12"/>
  <circle cx="600" cy="180" r="110" fill="url(#window)"/>
  <rect x="540" y="100" width="120" height="160" fill="#232b3a"/>
  <rect x="540" y="100" width="120" height="160" fill="none" stroke="#0a0c10" stroke-width="8"/>
  <line x1="600" y1="100" x2="600" y2="260" stroke="#0a0c10" stroke-width="6"/>
  <line x1="540" y1="180" x2="660" y2="180" stroke="#0a0c10" stroke-width="6"/>
  <g fill="#0d1015">
    <rect x="560" y="140" width="16" height="40"/>
    <rect x="620" y="150" width="14" height="34"/>
  </g>
  <g fill="#1c212a">
    <rect x="120" y="360" width="150" height="30" rx="8"/>
    <rect x="130" y="330" width="130" height="34" rx="8"/>
    <rect x="330" y="370" width="120" height="26" rx="8"/>
  </g>
  <g fill="#080a0d">
    <ellipse cx="400" cy="480" rx="30" ry="10"/>
    <circle cx="382" cy="468" r="9"/>
    <rect x="392" y="470" width="16" height="26" rx="6"/>
  </g>
  <rect width="800" height="600" fill="url(#vig)"/>
</svg>
