<svg xmlns="http://www.w3.org/2000/svg" viewBox="0 0 800 600">
  <defs>
    <linearGradient id="wall" x1="0" y1="0" x2="0" y2="1">
      <stop offset="0" stop-color="#181b21"/>
      <stop offset="1" stop-color="#101318"/>
    </linearGradient>
    <radialGradient id="moon" cx="0.5" cy="0.5" r="0.5">
      <stop offset="0" stop-color="#e8e4d8" stop-opacity="0.9"/>
      <stop offset="1" stop-color="#e8e4d8" stop-opacity="0"/>
    </radialGradient>
    <radialGradient id="vig" cx="0.5" cy="0.45" r="0.75">
      <stop offset="0.45" stop-color="#000" stop-opacity="0"/>
      <stop offset="1" stop-color="#000" stop-opacity="0.7"/>
    </radialGradient>
  </defs>
  <rect width="800" height="600" fill="url(#wall)"/>
  <circle cx="180" cy="150" r="90" fill="url(#moon)"/>
  <rect x="120" y="80" width="120" height="150" fill="#232b3a"/>
  <rect x="120" y="80" width="120" height="150" fill="none" stroke="#0a0c10" stroke-width="8"/>
  <line x1="180" y1="80" x2="180" y2="230" stroke="#0a0c10" stroke-width="6"/>
  <polygon points="120,230 240,230 300,420 40,420" fill="#c8d2e0" opacity="0.07"/>
  <rect x="0" y="420" width="800" height="180" fill="#0b0d11"/>
  <rect x="560" y="160" width="120" height="260" fill="#1c212a"/>
  <rect x="560" y="160" width="120" height="260" fill="none" stroke="#0a0c10" stroke-width="6"/>
  <rect x="578" y="210" width="84" height="110" fill="#e8e2d2" opacity="0.9"/>
  <circle cx="620" cy="265" r="20" fill="none" stroke="#a33b32" stroke-width="4"/>
  <line x1="578" y1="210" x2="662" y2="320" stroke="#a33b32" stroke-width="3"/>
  <line x1="600" y1="230" x2="645" y2="300" stroke="#4a6fa5" stroke-width="2"/>
  <rect x="330" y="330" width="150" height="90" fill="#171b23"/>
  <rect x="330" y="330" width="150" height="8" fill="#232936"/>
  <rect x="350" y="300" width="30" height="30" fill="#3a4353"/>
  <rect x="395" y="308" width="24" height="22" fill="#4a5568"/>
  <rect x="700" y="300" width="70" height="120" fill="#c8d2e0" opacity="0.12"/>
  <rect x="700" y="300" width="70" height="120" fill="none" stroke="#0a0c10" stroke-width="6"/>
  <rect width="800" height="600" fill="url(#vig)"/>
</svg>
