<svg xmlns="http://www.w3.org/2000/svg" viewBox="0 0 800 600">
  <defs>
    <linearGradient id="sky" x1="0" y1="0" x2="0" y2="1">
      <stop offset="0" stop-color="#1a1d23"/>
      <stop offset="1" stop-color="#31363e"/>
    </linearGradient>
    <radialGradient id="sign" cx="0.5" cy="0.5" r="0.5">
      <stop offset="0" stop-color="#e8c56a" stop-opacity="0.8"/>
      <stop offset="1" stop-color="#e8c56a" stop-opacity="0"/>
    </radialGradient>
    <radialGradient id="vig" cx="0.5" cy="0.45" r="0.75">
      <stop offset="0.5" stop-color="#000" stop-opacity="0"/>
      <stop offset="1" stop-color="#000" stop-opacity="0.65"/>
    </radialGradient>
  </defs>
  <rect width="800" height="600" fill="url(#sky)"/>
  <rect x="0" y="430" width="800" height="170" fill="#0c0e12"/>
  <g fill="#14171d">
    <rect x="560" y="240" width="200" height="200"/>
    <rect x="580" y="280" width="60" height="80" fill="#1c2129"/>
    <rect x="660" y="280" width="60" height="80" fill="#0a0c10"/>
  </g>
  <rect x="120" y="220" width="380" height="26" fill="#1c212a"/>
  <rect x="150" y="246" width="18" height="190" fill="#14171d"/>
  <rect x="450" y="246" width="18" height="190" fill="#14171d"/>
  <g fill="#232936">
    <rect x="230" y="330" width="40" height="80" rx="6"/>
    <rect x="300" y="330" width="40" height="80" rx="6"/>
  </g>
  <rect x="238" y="345" width="24" height="20" fill="#0a0c10"/>
  <rect x="308" y="345" width="24" height="20" fill="#0a0c10"/>
  <circle cx="640" cy="180" r="60" fill="url(#sign)"/>
  <rect x="636" y="120" width="8" height="120" fill="#14171d"/>
  <rect x="600" y="80" width="80" height="46" rx="6" fill="#d9a441"/>
  <rect x="600" y="80" width="80" height="46" rx="6" fill="none" stroke="#8a6420" stroke-width="3"/>
  <g stroke="#0a0c10" stroke-width="5" fill="none">
    <circle cx="330" cy="470" r="26"/>
    <circle cx="420" cy="470" r="26"/>
    <path d="M330 470 L360 430 L400 430 L420 470"/>
    <path d="M360 430 L355 415 M400 430 L408 412"/>
  </g>
  <rect x="0" y="380" width="800" height="50" fill="#9aa4ad" opacity="0.05"/>
  <rect width="800" height="600" fill="url(#vig)"/>
</svg>
