<svg xmlns="http://www.w3.org/2000/svg" viewBox="0 0 800 600">
  <defs>
    <linearGradient id="sky" x1="0" y1="0" x2="0" y2="1">
      <stop offset="0" stop-color="#181b21"/>
      <stop offset="1" stop-color="#2e333b"/>
    </linearGradient>
    <radialGradient id="vig" cx="0.5" cy="0.45" r="0.75">
      <stop offset="0.5" stop-color="#000" stop-opacity="0"/>
      <stop offset="1" stop-color="#000" stop-opacity="0.65"/>
    </radialGradient>
  </defs>
  <rect width="800" height="600" fill="url(#sky)"/>
  <g fill="#0b0d11">
    <rect x="0" y="140" width="120" height="300"/>
    <rect x="680" y="120" width="120" height="320"/>
  </g>
  <rect x="0" y="430" width="800" height="170" fill="#0c0e12"/>
  <g fill="#101318">
    <rect x="180" y="360" width="130" height="60" rx="18"/>
    <rect x="200" y="336" width="80" height="34" rx="12"/>
    <circle cx="205" cy="425" r="17"/>
    <circle cx="285" cy="425" r="17"/>
  </g>
  <g fill="#181c24">
    <rect x="480" y="350" width="150" height="70" rx="20"/>
    <rect x="500" y="322" width="95" height="38" rx="13"/>
    <circle cx="505" cy="425" r="19"/>
    <circle cx="605" cy="425" r="19"/>
  </g>
  <g stroke="#3a4353" stroke-width="7" fill="none">
    <circle cx="330" cy="480" r="52"/>
    <circle cx="500" cy="480" r="52"/>
    <path d="M330 480 L395 415 L465 415 L500 480"/>
    <path d="M395 415 L385 392 M465 415 L478 388"/>
    <path d="M330 480 L410 480 L465 415"/>
  </g>
  <g stroke="#232936" stroke-width="4">
    <line x1="330" y1="480" x2="330" y2="428"/>
    <line x1="500" y1="480" x2="500" y2="428"/>
  </g>
  <rect x="0" y="390" width="800" height="46" fill="#9aa4ad" opacity="0.05"/>
  <rect width="800" height="600" fill="url(#vig)"/>
</svg>
